<?xml version="1.0" encoding="UTF-8"?>
<svg height="600" width="800" xmlns="http://www.w3.org/2000/svg" xmlns:xlink="http://www.w3.org/1999/xlink">
    <g id="Notes" font-family="'LucidaGrande', 'Lucida Grande', sans-serif" font-size="13">
        <rect fill="white" height="600.0" width="800.0" x="0.0" y="0.0" />
        <g font-size="13">
            <text x="18.0" y="176.0">Small</text>
            <text x="18.0" y="376.0">Medium</text>
            <text x="18.0" y="576.0">Large</text>
        </g>
        <g font-size="9">
            <text x="250.0" y="30.0">Ultralight</text>
            <text x="450.0" y="30.0">Regular</text>
            <text x="650.0" y="30.0">Black</text>
            <text id="template-version" fill="#505050" text-anchor="end" x="785.0" y="575.0">Template v.3.0</text>
            <a href="https://wangchujiang.com/#/app">
                <text fill="#505050" text-anchor="end" x="785.0" y="590.0">https://wangchujiang.com/#/app</text>
            </a>
        </g>
    </g>
    <g id="Guides" stroke="rgb(39, 170, 225)" stroke-width="0.5">
        <path id="Capline-S" d="M18,76 l800,0" />
        <path id="H-reference" d="M85,145.755 L87.685,145.755 L113.369,79.287 L114.052,79.287 L114.052,76 L112.148,76 L85,145.755 Z M95.693,121.536 L130.996,121.536 L130.263,119.313 L96.474,119.313 L95.693,121.536 Z M139.15,145.755 L141.787,145.755 L114.638,76 L113.466,76 L113.466,79.287 L139.15,145.755 Z" stroke="none" />
        <path id="Baseline-S" d="M18,146 l800,0" />
        <path id="left-margin-Ultralight-S" d="M221,56 l0,110" />
        <path id="right-margin-Ultralight-S" d="M309,56 l0,110" />
        <path id="left-margin-Regular-S" d="M421,56 l0,110" />
        <path id="right-margin-Regular-S" d="M509,56 l0,110" />
        <path id="left-margin-Black-S" d="M621,56 l0,110" />
        <path id="right-margin-Black-S" d="M709,56 l0,110" />
        <path id="Capline-M" d="M18,276 l800,0" />
        <path id="Baseline-M" d="M18,346 l800,0" />
        <path id="Capline-L" d="M18,476 l800,0" />
        <path id="Baseline-L" d="M18,546 l800,0" />
    </g>
    <g id="Symbols">
        <g id="Ultralight-S">
            <path d="M257.137,145.223 C248.377,142.423 241.121,135.581 237.362,125.158 C231.776,110.3 243.288,98.48 243.288,98.48 C243.288,98.48 242.955,101.512 244.373,104.857 C245.787,108.2 248.541,110.612 248.541,110.612 C248.541,110.612 245.874,103.612 252.381,91.946 C259.72,78.8 275.901,76 275.901,76 C275.901,76 271.813,82.3 273.643,88.754 C275.064,93.58 277.395,95.911 279.985,102.446 C282.572,109.134 282.155,112.788 282.155,112.788 C282.155,112.788 282.908,108.669 284.742,105.869 C288.746,99.723 294.167,98.246 294.167,98.246 C294.167,98.246 291.332,103.846 291.997,111.388 C292.498,116.911 293.331,123.288 290.247,130.446 C287.825,136.123 280.822,143.9 270.98,146 C276.65,143.665 280.405,138.223 279.989,132.315 C279.737,128.892 277.57,125.623 275.236,123.369 C273.818,132 268.726,133.012 268.726,133.012 C268.726,133.012 271.648,127.335 272.065,121.035 C272.349,118.418 272.094,115.771 271.316,113.258 C268.645,104.312 264.06,101.9 264.06,101.9 C264.06,101.9 265.562,107.112 260.056,115.512 C256.217,121.346 249.71,125.623 249.962,134.331 C250.13,139 253.049,142.969 257.137,145.223" />
        </g>
        <g id="Regular-S">
            <path d="M457.137,145.223 C448.377,142.423 441.121,135.581 437.362,125.158 C431.776,110.3 443.288,98.48 443.288,98.48 C443.288,98.48 442.955,101.512 444.373,104.857 C445.787,108.2 448.541,110.612 448.541,110.612 C448.541,110.612 445.874,103.612 452.381,91.946 C459.72,78.8 475.901,76 475.901,76 C475.901,76 471.813,82.3 473.643,88.754 C475.064,93.58 477.395,95.911 479.985,102.446 C482.572,109.134 482.155,112.788 482.155,112.788 C482.155,112.788 482.908,108.669 484.742,105.869 C488.746,99.723 494.167,98.246 494.167,98.246 C494.167,98.246 491.332,103.846 491.997,111.388 C492.498,116.911 493.331,123.288 490.247,130.446 C487.825,136.123 480.822,143.9 470.98,146 C476.65,143.665 480.405,138.223 479.989,132.315 C479.737,128.892 477.57,125.623 475.236,123.369 C473.818,132 468.726,133.012 468.726,133.012 C468.726,133.012 471.648,127.335 472.065,121.035 C472.349,118.418 472.094,115.771 471.316,113.258 C468.645,104.312 464.06,101.9 464.06,101.9 C464.06,101.9 465.562,107.112 460.056,115.512 C456.217,121.346 449.71,125.623 449.962,134.331 C450.13,139 453.049,142.969 457.137,145.223" />
        </g>
        <g id="Black-S">
            <path d="M657.137,145.223 C648.377,142.423 641.121,135.581 637.362,125.158 C631.776,110.3 643.288,98.48 643.288,98.48 C643.288,98.48 642.955,101.512 644.373,104.857 C645.787,108.2 648.541,110.612 648.541,110.612 C648.541,110.612 645.874,103.612 652.381,91.946 C659.72,78.8 675.901,76 675.901,76 C675.901,76 671.813,82.3 673.643,88.754 C675.064,93.58 677.395,95.911 679.985,102.446 C682.572,109.134 682.155,112.788 682.155,112.788 C682.155,112.788 682.908,108.669 684.742,105.869 C688.746,99.723 694.167,98.246 694.167,98.246 C694.167,98.246 691.332,103.846 691.997,111.388 C692.498,116.911 693.331,123.288 690.247,130.446 C687.825,136.123 680.822,143.9 670.98,146 C676.65,143.665 680.405,138.223 679.989,132.315 C679.737,128.892 677.57,125.623 675.236,123.369 C673.818,132 668.726,133.012 668.726,133.012 C668.726,133.012 671.648,127.335 672.065,121.035 C672.349,118.418 672.094,115.771 671.316,113.258 C668.645,104.312 664.06,101.9 664.06,101.9 C664.06,101.9 665.562,107.112 660.056,115.512 C656.217,121.346 649.71,125.623 649.962,134.331 C650.13,139 653.049,142.969 657.137,145.223" />
        </g>
    </g>
</svg>