<svg width="97" height="73" viewBox="0 0 97 73" fill="none" xmlns="http://www.w3.org/2000/svg">
<g id="Hourglass-Blocked-128">
<g id="Backdrop">
<path id="Vector" opacity="0.2" d="M84.7786 30.8319L83.6214 31.1319C83.4071 31.1748 83.1928 31.3891 83.15 31.6034L82.85 32.7605C82.7643 33.0605 82.5071 33.2319 82.25 33.2319C81.95 33.2319 81.6928 33.0176 81.65 32.7605L81.35 31.6034C81.3072 31.3891 81.0929 31.1748 80.8786 31.1319L79.7214 30.8319C79.4214 30.7462 79.25 30.4891 79.25 30.2319C79.25 29.9319 79.4643 29.6748 79.7214 29.6319L80.8786 29.3319C81.0929 29.2891 81.3072 29.0748 81.35 28.8605L81.65 27.7034C81.7357 27.4034 81.9929 27.2319 82.25 27.2319C82.55 27.2319 82.8072 27.4462 82.85 27.7034L83.15 28.8605C83.1928 29.0748 83.4071 29.2891 83.6214 29.3319L84.7786 29.6319C85.0786 29.7176 85.25 29.9748 85.25 30.2319C85.25 30.5319 85.0357 30.7891 84.7786 30.8319Z" fill="#888888"/>
<path id="Vector_2" opacity="0.2" d="M20.0429 26.6319L18.3072 27.0819C17.9857 27.1462 17.6643 27.4676 17.6 27.7891L17.15 29.5248C17.0214 29.9748 16.6357 30.2319 16.25 30.2319C15.8 30.2319 15.4143 29.9105 15.35 29.5248L14.9 27.7891C14.8357 27.4676 14.5143 27.1462 14.1928 27.0819L12.4571 26.6319C12.0071 26.5034 11.75 26.1176 11.75 25.7319C11.75 25.2819 12.0714 24.8962 12.4571 24.8319L14.1928 24.3819C14.5143 24.3176 14.8357 23.9962 14.9 23.6748L15.35 21.9391C15.4786 21.4891 15.8643 21.2319 16.25 21.2319C16.7 21.2319 17.0857 21.5534 17.15 21.9391L17.6 23.6748C17.6643 23.9962 17.9857 24.3176 18.3072 24.3819L20.0429 24.8319C20.4929 24.9605 20.75 25.3462 20.75 25.7319C20.75 26.1819 20.4286 26.5676 20.0429 26.6319Z" fill="#888888"/>
<path id="Vector_3" opacity="0.2" d="M6.02858 42.0819L4.87143 42.3819C4.65715 42.4248 4.44285 42.6391 4.39999 42.8534L4.10001 44.0105C4.0143 44.3105 3.75714 44.4819 3.5 44.4819C3.2 44.4819 2.94285 44.2676 2.89999 44.0105L2.60001 42.8534C2.55715 42.6391 2.34285 42.4248 2.12857 42.3819L0.971418 42.0819C0.671418 41.9962 0.5 41.7391 0.5 41.4819C0.5 41.1819 0.714275 40.9248 0.971418 40.8819L2.12857 40.5819C2.34285 40.5391 2.55715 40.3248 2.60001 40.1105L2.89999 38.9534C2.9857 38.6534 3.24286 38.4819 3.5 38.4819C3.8 38.4819 4.05715 38.6962 4.10001 38.9534L4.39999 40.1105C4.44285 40.3248 4.65715 40.5391 4.87143 40.5819L6.02858 40.8819C6.32858 40.9676 6.5 41.2248 6.5 41.4819C6.5 41.7819 6.28572 42.0391 6.02858 42.0819Z" fill="#888888"/>
<path id="Vector_4" opacity="0.2" d="M95.375 39.9819C94.7562 39.9819 94.25 39.4757 94.25 38.8569C94.25 38.2382 94.7562 37.7319 95.375 37.7319C95.9938 37.7319 96.5 38.2382 96.5 38.8569C96.5 39.4757 95.9938 39.9819 95.375 39.9819Z" fill="#888888"/>
<path id="Vector_5" opacity="0.2" d="M17.75 53.4819C16.925 53.4819 16.25 52.8069 16.25 51.9819C16.25 51.1569 16.925 50.4819 17.75 50.4819C18.575 50.4819 19.25 51.1569 19.25 51.9819C19.25 52.8069 18.575 53.4819 17.75 53.4819Z" fill="#888888"/>
</g>
<path id="Subtract" d="M53.946 39.4883C55.5907 40.2453 55.7501 42.6293 54.5306 43.9674C52.182 46.5441 50.75 49.9708 50.75 53.7319V57.2319H39.7144C35.4539 57.2319 32 53.7781 32 49.5175C32 46.5055 33.753 43.7689 36.4892 42.5096L44.6003 38.7767C45.301 38.4542 45.75 37.7533 45.75 36.9819C45.75 36.2105 45.301 35.5097 44.6003 35.1872L36.4892 31.4542C33.753 30.195 32 27.4584 32 24.4464C32 20.1858 35.4539 16.7319 39.7144 16.7319H57.2856C61.5461 16.7319 65 20.1858 65 24.4463C65 27.4584 63.247 30.1949 60.5108 31.4542L52.3997 35.1872C51.699 35.5097 51.25 36.2105 51.25 36.9819C51.25 37.7533 51.699 38.4542 52.3997 38.7767L53.946 39.4883Z" fill="#ADC2FC"/>
<g id="Subtract_2">
<path d="M53.2881 45.5342C51.687 47.866 50.75 50.6896 50.75 53.7319V57.7224L48.5001 57.9819L39.1667 56.7102L35.75 52.895L43.6631 45.5789C46.3774 43.0694 50.5564 43.0545 53.2881 45.5342Z" fill="url(#paint0_linear_25_6130)"/>
<path d="M48.4999 35.4819L40.3494 28.4181C39.2791 27.4905 39.9352 25.7319 41.3515 25.7319H55.6485C57.0648 25.7319 57.7208 27.4905 56.6505 28.4181L48.4999 35.4819Z" fill="url(#paint1_linear_25_6130)"/>
</g>
<path id="Subtract_3" fill-rule="evenodd" clip-rule="evenodd" d="M50.7839 52.7319C50.7614 53.0624 50.75 53.3958 50.75 53.7319V57.2319H39.7144C35.4539 57.2319 32 53.7781 32 49.5175C32 46.5055 33.753 43.7689 36.4892 42.5096L44.6003 38.7767C45.301 38.4542 45.75 37.7533 45.75 36.9819C45.75 36.2105 45.301 35.5097 44.6003 35.1872L36.4892 31.4542C33.753 30.195 32 27.4584 32 24.4464C32 20.1858 35.4539 16.7319 39.7144 16.7319H57.2856C61.5461 16.7319 65 20.1858 65 24.4463C65 27.4584 63.247 30.1949 60.5108 31.4542L52.3997 35.1872C51.699 35.5097 51.25 36.2105 51.25 36.9819C51.25 37.7533 51.699 38.4542 52.3997 38.7767L55.2394 40.0836C56.3358 40.5882 56.4356 42.1549 55.5395 42.9635C55.013 43.4386 54.5214 43.9518 54.0692 44.4987L50.5184 42.8645C49.7433 42.5078 49.0623 42.0099 48.5 41.4096C47.9377 42.0099 47.2567 42.5078 46.4816 42.8645L38.3705 46.5975C37.2304 47.1222 36.5 48.2625 36.5 49.5175C36.5 51.2928 37.9391 52.7319 39.7144 52.7319H50.7839ZM39.7144 21.2319H57.2856C59.0609 21.2319 60.5 22.6711 60.5 24.4463C60.5 25.7014 59.7696 26.8416 58.6295 27.3663L50.5183 31.0993C49.7433 31.456 49.0623 31.9539 48.5 32.5543C47.9377 31.9539 47.2567 31.456 46.4816 31.0993L38.3706 27.3664C37.2305 26.8417 36.5 25.7014 36.5 24.4464C36.5 22.6711 37.9391 21.2319 39.7144 21.2319Z" fill="url(#paint2_linear_25_6130)"/>
<path id="Subtract_4" d="M50.75 57.9819C50.75 59.6388 49.4069 60.9819 47.75 60.9819H31.25C30.0074 60.9819 29 59.9746 29 58.7319V57.2319C29 55.9893 30.0074 54.9819 31.25 54.9819H50.75V57.9819Z" fill="#E2A412"/>
<path id="Rectangle 3465361" d="M29 15.2319C29 13.9893 30.0074 12.9819 31.25 12.9819H65.75C66.9926 12.9819 68 13.9893 68 15.2319V16.7319C68 17.9746 66.9926 18.9819 65.75 18.9819H31.25C30.0074 18.9819 29 17.9746 29 16.7319V15.2319Z" fill="#C18010"/>
<path id="Rectangle 3465362" d="M29 15.2319C29 13.9893 30.0074 12.9819 31.25 12.9819H55.25C56.4926 12.9819 57.5 13.9893 57.5 15.2319V16.7319C57.5 17.9746 56.4926 18.9819 55.25 18.9819H31.25C30.0074 18.9819 29 17.9746 29 16.7319V15.2319Z" fill="#E2A412"/>
<path id="Vector_6" d="M65.75 66.2319C72.3774 66.2319 77.75 60.8594 77.75 54.2319C77.75 47.6045 72.3774 42.2319 65.75 42.2319C59.1226 42.2319 53.75 47.6045 53.75 54.2319C53.75 60.8594 59.1226 66.2319 65.75 66.2319Z" fill="#EB102D"/>
<path id="Vector_7" d="M81.0532 53.375H83.7547C84.25 53.375 84.6553 53.7802 84.6553 54.2755C84.6553 54.7708 84.25 55.176 83.7547 55.176H81.0532C80.5579 55.176 80.1527 54.7708 80.1527 54.2755C80.1527 53.7802 80.5579 53.375 81.0532 53.375Z" fill="#CCCCCC"/>
<path id="Vector_8" d="M81.9538 45.2706C82.1834 45.2706 82.413 45.3606 82.5886 45.5362C82.9398 45.8874 82.9398 46.4592 82.5886 46.8104L80.7876 48.6115C80.4364 48.9627 79.8646 48.9627 79.5134 48.6115C79.1622 48.2603 79.1622 47.6884 79.5134 47.3372L81.3144 45.5362C81.49 45.3606 81.7196 45.2706 81.9493 45.2706H81.9538Z" fill="#CCCCCC"/>
<path id="Vector_9" d="M80.1574 59.6795C79.9278 59.6795 79.6982 59.7696 79.5226 59.9452C79.1714 60.2964 79.1714 60.8682 79.5226 61.2194L81.3236 63.0204C81.6748 63.3716 82.2466 63.3716 82.5978 63.0204C82.949 62.6692 82.949 62.0974 82.5978 61.7462L80.7968 59.9452C80.6212 59.7696 80.3915 59.6795 80.1619 59.6795H80.1574Z" fill="#CCCCCC"/>
<path id="Union" fill-rule="evenodd" clip-rule="evenodd" d="M60.25 52.482C59.9739 52.482 59.75 52.7059 59.75 52.982V56.232C59.75 56.5081 59.9739 56.732 60.25 56.732L72 56.732C72.2761 56.732 72.5 56.5081 72.5 56.232V52.982C72.5 52.7059 72.2761 52.482 72 52.482L60.25 52.482Z" fill="white"/>
</g>
<defs>
<linearGradient id="paint0_linear_25_6130" x1="33.4732" y1="41.0171" x2="63.5268" y2="41.0171" gradientUnits="userSpaceOnUse">
<stop stop-color="#8FABF9"/>
<stop offset="1" stop-color="#557FF3"/>
</linearGradient>
<linearGradient id="paint1_linear_25_6130" x1="33.4732" y1="41.0171" x2="63.5268" y2="41.0171" gradientUnits="userSpaceOnUse">
<stop stop-color="#8FABF9"/>
<stop offset="1" stop-color="#557FF3"/>
</linearGradient>
<linearGradient id="paint2_linear_25_6130" x1="32" y1="36.9819" x2="65" y2="36.9819" gradientUnits="userSpaceOnUse">
<stop offset="0.39" stop-color="#ADC2FC"/>
<stop offset="1" stop-color="#8FABF9"/>
</linearGradient>
</defs>
</svg>
