<?xml version="1.0" encoding="UTF-8"?>
<svg height="600" width="800" xmlns="http://www.w3.org/2000/svg" xmlns:xlink="http://www.w3.org/1999/xlink">
    <g id="Notes" font-family="'LucidaGrande', 'Lucida Grande', sans-serif" font-size="13">
        <rect fill="white" height="600.0" width="800.0" x="0.0" y="0.0" />
        <g font-size="13">
            <text x="18.0" y="176.0">Small</text>
            <text x="18.0" y="376.0">Medium</text>
            <text x="18.0" y="576.0">Large</text>
        </g>
        <g font-size="9">
            <text x="250.0" y="30.0">Ultralight</text>
            <text x="450.0" y="30.0">Regular</text>
            <text x="650.0" y="30.0">Black</text>
            <text id="template-version" fill="#505050" text-anchor="end" x="785.0" y="575.0">Template v.3.0</text>
            <a href="https://wangchujiang.com/#/app">
                <text fill="#505050" text-anchor="end" x="785.0" y="590.0">https://wangchujiang.com/#/app</text>
            </a>
        </g>
    </g>
    <g id="Guides" stroke="rgb(39, 170, 225)" stroke-width="0.5">
        <path id="Capline-S" d="M18,76 l800,0" />
        <path id="H-reference" d="M85,145.755 L87.685,145.755 L113.369,79.287 L114.052,79.287 L114.052,76 L112.148,76 L85,145.755 Z M95.693,121.536 L130.996,121.536 L130.263,119.313 L96.474,119.313 L95.693,121.536 Z M139.15,145.755 L141.787,145.755 L114.638,76 L113.466,76 L113.466,79.287 L139.15,145.755 Z" stroke="none" />
        <path id="Baseline-S" d="M18,146 l800,0" />
        <path id="left-margin-Ultralight-S" d="M221,56 l0,110" />
        <path id="right-margin-Ultralight-S" d="M309,56 l0,110" />
        <path id="left-margin-Regular-S" d="M421,56 l0,110" />
        <path id="right-margin-Regular-S" d="M509,56 l0,110" />
        <path id="left-margin-Black-S" d="M621,56 l0,110" />
        <path id="right-margin-Black-S" d="M709,56 l0,110" />
        <path id="Capline-M" d="M18,276 l800,0" />
        <path id="Baseline-M" d="M18,346 l800,0" />
        <path id="Capline-L" d="M18,476 l800,0" />
        <path id="Baseline-L" d="M18,546 l800,0" />
    </g>
    <g id="Symbols">
        <g id="Ultralight-S">
            <path d="M247.997,89.902 C247.997,82.224 254.222,76 261.899,76 C269.577,76 275.801,82.224 275.801,89.902 L275.801,100.42 C275.906,103.337 275.92,103.828 275.854,105.984 C275.805,106.866 275.148,107.593 274.276,107.731 C267.713,108.912 262.223,113.394 259.754,119.588 C259.42,120.423 258.554,120.959 257.699,120.689 C251.924,118.853 248.001,113.492 247.997,107.433 Z M258.849,130.91 C258.498,129.332 257.313,128.035 255.767,127.561 C246.911,124.862 240.86,116.691 240.862,107.433 C240.862,105.496 239.293,103.926 237.356,103.926 C235.42,103.926 233.85,105.496 233.85,107.433 C233.85,121.572 244.37,133.499 258.396,135.265 L258.396,138.988 L244.369,138.988 C242.432,138.988 240.862,140.557 240.862,142.494 C240.862,144.43 242.432,146 244.369,146 L265.405,146 C268.912,146 270.398,144.92 267.428,143.055 C263.06,140.316 259.97,135.942 258.849,130.91 M288.164,110.532 C288.844,110.97 289.784,110.592 289.85,109.785 C289.916,109.009 289.948,109.009 289.948,107.433 C289.948,105.496 288.379,103.926 286.442,103.926 C284.506,103.926 282.936,105.496 282.936,107.433 C282.937,107.858 283.211,108.234 283.616,108.365 C285.236,108.891 286.765,109.62 288.164,110.532" />
            <path d="M277.677,112.692 C271.656,112.693 266.308,116.537 264.387,122.243 C262.467,127.95 264.403,134.245 269.198,137.886 C273.994,141.527 280.578,141.701 285.559,138.318 L291.596,144.352 C292.252,145.056 293.239,145.345 294.171,145.107 C295.102,144.869 295.83,144.142 296.068,143.21 C296.306,142.278 296.016,141.291 295.313,140.636 L289.279,134.598 C292.198,130.301 292.503,124.743 290.072,120.152 C287.641,115.562 282.872,112.691 277.677,112.692 M268.912,126.716 C268.912,121.875 272.836,117.951 277.677,117.951 C282.518,117.951 286.442,121.875 286.442,126.716 C286.442,131.557 282.518,135.482 277.677,135.482 C272.836,135.482 268.912,131.557 268.912,126.716" />
        </g>
        <g id="Regular-S">
            <path d="M447.997,89.902 C447.997,82.224 454.222,76 461.899,76 C469.577,76 475.801,82.224 475.801,89.902 L475.801,100.42 C475.906,103.337 475.92,103.828 475.854,105.984 C475.805,106.866 475.148,107.593 474.276,107.731 C467.713,108.912 462.223,113.394 459.754,119.588 C459.42,120.423 458.554,120.959 457.699,120.689 C451.924,118.853 448.001,113.492 447.997,107.433 Z M458.849,130.91 C458.498,129.332 457.313,128.035 455.767,127.561 C446.911,124.862 440.86,116.691 440.862,107.433 C440.862,105.496 439.293,103.926 437.356,103.926 C435.42,103.926 433.85,105.496 433.85,107.433 C433.85,121.572 444.37,133.499 458.396,135.265 L458.396,138.988 L444.369,138.988 C442.432,138.988 440.862,140.557 440.862,142.494 C440.862,144.43 442.432,146 444.369,146 L465.405,146 C468.912,146 470.398,144.92 467.428,143.055 C463.06,140.316 459.97,135.942 458.849,130.91 M488.164,110.532 C488.844,110.97 489.784,110.592 489.85,109.785 C489.916,109.009 489.948,109.009 489.948,107.433 C489.948,105.496 488.379,103.926 486.442,103.926 C484.506,103.926 482.936,105.496 482.936,107.433 C482.937,107.858 483.211,108.234 483.616,108.365 C485.236,108.891 486.765,109.62 488.164,110.532" />
            <path d="M477.677,112.692 C471.656,112.693 466.308,116.537 464.387,122.243 C462.467,127.95 464.403,134.245 469.198,137.886 C473.994,141.527 480.578,141.701 485.559,138.318 L491.596,144.352 C492.252,145.056 493.239,145.345 494.171,145.107 C495.102,144.869 495.83,144.142 496.068,143.21 C496.306,142.278 496.016,141.291 495.313,140.636 L489.279,134.598 C492.198,130.301 492.503,124.743 490.072,120.152 C487.641,115.562 482.872,112.691 477.677,112.692 M468.912,126.716 C468.912,121.875 472.836,117.951 477.677,117.951 C482.518,117.951 486.442,121.875 486.442,126.716 C486.442,131.557 482.518,135.482 477.677,135.482 C472.836,135.482 468.912,131.557 468.912,126.716" />
        </g>
        <g id="Black-S">
            <path d="M647.997,89.902 C647.997,82.224 654.222,76 661.899,76 C669.577,76 675.801,82.224 675.801,89.902 L675.801,100.42 C675.906,103.337 675.92,103.828 675.854,105.984 C675.805,106.866 675.148,107.593 674.276,107.731 C667.713,108.912 662.223,113.394 659.754,119.588 C659.42,120.423 658.554,120.959 657.699,120.689 C651.924,118.853 648.001,113.492 647.997,107.433 Z M658.849,130.91 C658.498,129.332 657.313,128.035 655.767,127.561 C646.911,124.862 640.86,116.691 640.862,107.433 C640.862,105.496 639.293,103.926 637.356,103.926 C635.42,103.926 633.85,105.496 633.85,107.433 C633.85,121.572 644.37,133.499 658.396,135.265 L658.396,138.988 L644.369,138.988 C642.432,138.988 640.862,140.557 640.862,142.494 C640.862,144.43 642.432,146 644.369,146 L665.405,146 C668.912,146 670.398,144.92 667.428,143.055 C663.06,140.316 659.97,135.942 658.849,130.91 M688.164,110.532 C688.844,110.97 689.784,110.592 689.85,109.785 C689.916,109.009 689.948,109.009 689.948,107.433 C689.948,105.496 688.379,103.926 686.442,103.926 C684.506,103.926 682.936,105.496 682.936,107.433 C682.937,107.858 683.211,108.234 683.616,108.365 C685.236,108.891 686.765,109.62 688.164,110.532" />
            <path d="M677.677,112.692 C671.656,112.693 666.308,116.537 664.387,122.243 C662.467,127.95 664.403,134.245 669.198,137.886 C673.994,141.527 680.578,141.701 685.559,138.318 L691.596,144.352 C692.252,145.056 693.239,145.345 694.171,145.107 C695.103,144.869 695.83,144.142 696.068,143.21 C696.306,142.278 696.016,141.291 695.313,140.636 L689.279,134.598 C692.198,130.301 692.503,124.743 690.072,120.152 C687.641,115.562 682.872,112.691 677.677,112.692 M668.912,126.716 C668.912,121.875 672.836,117.951 677.677,117.951 C682.518,117.951 686.442,121.875 686.442,126.716 C686.442,131.557 682.518,135.482 677.677,135.482 C672.836,135.482 668.912,131.557 668.912,126.716" />
        </g>
    </g>
</svg>